<svg width="306" height="84" viewBox="0 0 306 84" fill="none" xmlns="http://www.w3.org/2000/svg">
<path d="M14.5031 32.1073C17.9388 28.4835 22.0538 26.7012 26.9827 27.0717C30.7706 27.3296 34.308 29.057 36.8406 31.8855C41.9296 37.3815 42.0278 45.8472 36.9557 51.708C34.0281 55.0903 30.1854 56.738 25.7084 56.7296C21.2762 56.7296 17.5851 54.9107 14.5593 51.7108C14.1944 52.101 14.4189 52.3817 14.5312 52.6455C19.2188 63.5925 27.429 70.0035 39.3107 71.4687C46.2045 72.3108 52.5931 70.6491 58.4764 66.9973C58.757 66.8177 59.0377 66.391 59.4026 66.9552C61.5454 70.1754 64.0819 73.1155 66.9533 75.7072C62.9467 78.5906 58.4681 80.7535 53.7186 82.0985C31.0191 88.619 6.76447 74.4384 1.63903 51.447C-1.67594 36.5843 2.06849 23.476 12.6393 12.5206C19.6763 5.22821 28.462 1.25362 38.5893 0.279614C48.4309 -0.642829 58.2808 1.95291 66.3896 7.60576C74.4983 13.2586 80.341 21.6026 82.8797 31.1557C85.5154 41.0894 84.519 50.7733 80.1177 60.0923C79.7612 60.853 79.5339 60.7968 78.9949 60.2607C75.5314 56.8003 73.1013 52.4426 71.9776 47.6773C71.8573 47.0278 71.8573 46.3618 71.9776 45.7124C73.9762 29.4323 63.018 14.957 46.7827 12.4027C33.1692 10.261 19.5079 18.1625 14.5256 31.0575C14.4414 31.341 14.2365 31.6105 14.5031 32.1073Z" fill="#28AAE1"/>
<path d="M125.301 31.7185C125.435 31.2637 125.169 30.896 125.003 30.5283C120.192 19.9294 112.044 13.7289 100.395 12.3732C93.6077 11.5844 87.3118 13.2152 81.5408 16.8277C80.8924 17.2347 80.6089 17.2404 80.1654 16.5667C78.2591 13.6782 76.003 11.0365 73.4484 8.70171C72.9039 8.20208 72.8309 7.95788 73.513 7.49193C79.4477 3.3854 86.3383 0.873293 93.5235 0.196741C112.03 -1.58565 129.323 8.89258 136.099 25.5432C142.527 41.3265 140.177 56.1106 129.228 69.2273C122.247 77.592 113.043 82.2711 102.211 83.4977C80.418 85.9734 60.9492 71.428 56.4834 50.8981C54.4484 41.5539 55.5178 32.5521 59.5514 23.89C60.1492 22.6072 60.1605 22.6044 61.1681 23.6373C64.5692 27.1059 66.9385 31.452 68.0114 36.1899C68.2697 37.2902 67.9104 38.3456 67.8205 39.415C67.2513 46.4821 69.2221 53.5205 73.3784 59.2645C77.5347 65.0084 83.6039 69.0812 90.4946 70.7503C97.3853 72.4195 104.646 71.5755 110.97 68.3702C117.294 65.1649 122.267 59.8086 124.995 53.2644C125.149 52.8882 125.419 52.5262 125.301 52.0742C125.424 52.0939 125.486 52.0742 125.393 51.9395L125.318 52.0939C123.667 53.4973 122.033 54.9008 119.968 55.6952C114.171 57.9014 108.796 57.0986 104.181 53.0089C99.6229 48.9558 98.1184 43.7124 99.7577 37.8516C101.397 31.9907 105.45 28.367 111.434 27.1853C116.434 26.2085 120.86 27.6372 124.605 31.115C124.832 31.3227 124.981 31.6286 125.318 31.7072C125.343 31.7606 125.318 31.9262 125.447 31.7746L125.301 31.7185Z" fill="#F9A722"/>
<path d="M271.942 35.8388C271.942 34.1995 271.968 32.7119 271.942 31.2242C271.942 30.6235 272.128 30.4523 272.72 30.4579C276.226 30.4804 279.737 30.4916 283.235 30.4579C283.987 30.4579 284.161 30.6769 284.158 31.3982C284.127 36.9952 284.141 42.5922 284.141 48.1864C284.141 55.0774 284.11 61.9684 284.172 68.8566C284.172 69.9794 283.846 70.1618 282.833 70.1394C279.574 70.0748 276.315 70.0888 273.057 70.1394C272.215 70.1394 271.881 69.9737 271.934 69.0615C272.012 67.6777 271.954 66.2883 271.954 64.6238C270.833 66.1516 269.442 67.4616 267.85 68.4889C261.955 72.2165 251.101 71.8572 245.465 62.6898C242.472 57.8254 241.816 52.4894 242.402 46.9345C242.964 41.8596 244.867 37.4107 248.749 33.9582C254.736 28.625 264.521 28.538 270.017 33.7392C270.662 34.3399 271.224 35.0444 271.942 35.8388ZM254.618 50.2692C254.596 51.249 254.69 52.2279 254.899 53.1856C255.833 57.2416 259.126 60.0092 263.086 60.0625C267.215 60.1186 270.488 57.57 271.561 53.4466C272.055 51.5421 272.096 49.5484 271.681 47.625C270.98 44.2904 269.088 41.8849 265.764 40.8884C262.564 39.9257 259.651 40.6077 257.234 42.9824C255.207 44.9781 254.59 47.5156 254.618 50.2692V50.2692Z" fill="#434244"/>
<path d="M232.497 55.3899C232.497 59.9708 232.477 64.5545 232.514 69.1438C232.514 69.9185 232.328 70.1487 231.526 70.1374C228.125 70.0888 224.725 70.0888 221.325 70.1374C220.483 70.1374 220.292 69.8932 220.295 69.0905C220.323 59.996 220.295 50.9016 220.337 41.81C220.337 40.7883 220.056 40.4486 219.052 40.5553C218.254 40.6423 217.44 40.5553 216.635 40.5806C216.116 40.603 215.88 40.4683 215.885 39.8929C215.908 36.9886 215.908 34.0882 215.885 31.1914C215.885 30.6553 216.037 30.4504 216.598 30.4757C217.544 30.5178 218.493 30.4476 219.436 30.4981C220.107 30.5346 220.346 30.3493 220.332 29.6364C220.249 27.6434 220.503 25.6509 221.081 23.7419C222.717 18.6417 226.451 16.0088 231.514 14.9562C233.656 14.5099 235.823 14.4594 238.001 14.4903C238.61 14.4903 238.86 14.6362 238.843 15.3127C238.804 18.215 238.804 21.1155 238.843 24.0141C238.843 24.6709 238.655 24.9067 238.001 24.8169C237.721 24.7929 237.439 24.7929 237.159 24.8169C233.951 24.9432 232.368 26.6695 232.471 29.8694C232.491 30.4083 232.696 30.5037 233.159 30.4981C234.843 30.4813 236.527 30.515 238.212 30.4785C238.832 30.4785 239.068 30.616 239.054 31.2869C239.02 34.12 239.02 36.9531 239.054 39.7862C239.054 40.4515 238.823 40.6283 238.212 40.6002C236.637 40.5637 235.057 40.6283 233.482 40.5693C232.699 40.5413 232.466 40.7658 232.471 41.5602C232.516 46.1551 232.497 50.7725 232.497 55.3899Z" fill="#434244"/>
<path d="M305.129 43.9936C305.129 52.3526 305.129 60.7116 305.146 69.0707C305.146 69.8706 304.98 70.1429 304.121 70.1317C300.686 70.0783 297.25 70.0924 293.814 70.1317C293.141 70.1317 292.922 69.9633 292.922 69.2587C292.942 52.3311 292.942 35.4016 292.922 18.4703C292.922 17.6844 293.202 17.5693 293.896 17.5749C297.298 17.603 300.697 17.6142 304.096 17.5749C304.91 17.5749 305.151 17.7714 305.149 18.6135C305.118 27.0623 305.129 35.528 305.129 43.9936Z" fill="#434244"/>
<path d="M169.257 50.2785C169.257 56.5351 169.238 62.7917 169.277 69.0483C169.277 69.9381 169.019 70.1402 168.154 70.129C164.786 70.0813 161.418 70.0897 158.066 70.129C157.333 70.129 157.036 70.0195 157.039 69.1803C157.067 56.594 157.067 44.0097 157.039 31.4272C157.039 30.6132 157.286 30.4504 158.046 30.4588C161.48 30.4981 164.913 30.4981 168.345 30.4588C169.106 30.4588 169.263 30.6974 169.26 31.4103C169.246 37.6922 169.254 43.9853 169.257 50.2785Z" fill="#434244"/>
<path d="M192.832 50.214C187.996 50.214 183.16 50.1831 178.323 50.2392C177.361 50.2392 177.17 49.9585 177.201 49.0687C177.26 46.3769 177.245 43.6823 177.201 40.9876C177.201 40.2999 177.386 40.109 178.079 40.1118C187.926 40.1306 197.773 40.1306 207.622 40.1118C208.369 40.1118 208.562 40.3308 208.551 41.055C208.512 43.7805 208.506 46.5116 208.551 49.2371C208.565 50.0203 208.349 50.242 207.555 50.2364C202.645 50.1971 197.739 50.214 192.832 50.214Z" fill="#434244"/>
<path d="M170.411 19.8599C170.357 23.5089 167.604 26.1333 163.545 26.3747C158.835 26.6554 155.405 23.1945 156.008 18.7652C156.387 15.9582 158.689 13.8278 161.872 13.3254C165.827 12.6966 169.408 14.8299 170.208 18.3076C170.303 18.8212 170.37 19.3393 170.411 19.8599V19.8599Z" fill="#434244"/>
<path d="M125.301 31.7189L125.451 31.765C125.315 31.9208 125.344 31.7506 125.318 31.6958L125.301 31.7189Z" fill="#FEFEFE"/>
<path d="M125.318 52.0842L125.394 51.9282C125.488 52.0615 125.425 52.0842 125.301 52.0643L125.318 52.0842Z" fill="#FEFEFE"/>
</svg>
