<svg width="240" height="66" viewBox="0 0 240 66" fill="none" xmlns="http://www.w3.org/2000/svg">
<path d="M11.0146 25.1994C13.711 22.3554 16.9405 20.9565 20.8088 21.2473C23.7817 21.4497 26.5578 22.8054 28.5455 25.0253C32.5394 29.3387 32.6165 35.9827 28.6358 40.5824C26.3381 43.2369 23.3223 44.53 19.8087 44.5234C16.3303 44.5234 13.4334 43.0959 11.0587 40.5846C10.7723 40.8908 10.9485 41.1111 11.0367 41.3181C14.7155 49.9095 21.1591 54.941 30.484 56.0909C35.8944 56.7518 40.9083 55.4477 45.5256 52.5817C45.7459 52.4407 45.9662 52.1058 46.2525 52.5486C47.9342 55.0759 49.9249 57.3833 52.1784 59.4173C49.034 61.6803 45.5191 63.3777 41.7916 64.4334C23.9766 69.5508 4.94118 58.4216 0.918647 40.3775C-1.683 28.713 1.25569 18.4254 9.55189 9.82739C15.0746 4.10421 21.9698 0.984871 29.9179 0.220458C37.6417 -0.503492 45.3721 1.53369 51.736 5.97015C58.0999 10.4066 62.6853 16.9551 64.6778 24.4526C66.7463 32.2487 65.9643 39.8488 62.5101 47.1625C62.2303 47.7595 62.0519 47.7154 61.6289 47.2947C58.9106 44.5788 57.0035 41.1589 56.1216 37.419C56.0272 36.9093 56.0272 36.3866 56.1216 35.8769C57.6901 23.1 49.0899 11.7395 36.3482 9.73487C25.6641 8.05404 14.9424 14.2553 11.0323 24.3755C10.9662 24.598 10.8054 24.8094 11.0146 25.1994Z" fill="#28AAE1"/>
<path d="M97.9705 24.8932C98.0762 24.5363 97.8669 24.2477 97.737 23.9592C93.9612 15.6409 87.5661 10.7747 78.424 9.71067C73.0973 9.09165 68.1562 10.3715 63.627 13.2067C63.1181 13.5261 62.8956 13.5305 62.5475 13.0018C61.0514 10.7349 59.2808 8.66165 57.2759 6.82925C56.8486 6.43713 56.7913 6.24548 57.3266 5.87979C61.9843 2.65692 67.3922 0.685375 73.0312 0.154406C87.5551 -1.24445 101.127 6.97905 106.445 20.0468C111.49 32.4338 109.646 44.0366 101.052 54.3308C95.5737 60.8955 88.3503 64.5678 79.8493 65.5305C62.7458 67.4734 47.4663 56.0579 43.9615 39.9457C42.3644 32.6122 43.2037 25.5475 46.3693 18.7493C46.8385 17.7425 46.8473 17.7403 47.6382 18.551C50.3073 21.2732 52.1669 24.6841 53.0089 28.4024C53.2115 29.266 52.9296 30.0943 52.8591 30.9336C52.4124 36.48 53.959 42.0038 57.221 46.5118C60.4829 51.0198 65.2461 54.2161 70.6541 55.5261C76.062 56.836 81.76 56.1737 86.7232 53.6581C91.6865 51.1426 95.5895 46.9388 97.7304 41.8028C97.8515 41.5076 98.063 41.2234 97.9705 40.8688C98.0674 40.8842 98.1159 40.8688 98.0432 40.763L97.9837 40.8842C96.6884 41.9857 95.4063 43.0871 93.7849 43.7105C89.2359 45.442 85.0173 44.812 81.3957 41.6023C77.8182 38.4213 76.6374 34.3063 77.9239 29.7066C79.2104 25.1069 82.3914 22.2629 87.088 21.3355C91.0114 20.5689 94.4855 21.6902 97.4242 24.4196C97.6026 24.5826 97.7193 24.8227 97.9837 24.8844C98.0035 24.9262 97.9837 25.0562 98.085 24.9373L97.9705 24.8932Z" fill="#F9A722"/>
<path d="M213.057 28.1272C213.057 26.8407 213.077 25.6732 213.057 24.5056C213.057 24.0342 213.203 23.8998 213.668 23.9042C216.419 23.9218 219.175 23.9307 221.92 23.9042C222.51 23.9042 222.647 24.076 222.644 24.6422C222.62 29.0348 222.631 33.4274 222.631 37.8179C222.631 43.226 222.607 48.6342 222.655 54.0402C222.655 54.9213 222.4 55.0645 221.605 55.0469C219.047 54.9962 216.49 55.0072 213.932 55.0469C213.271 55.0469 213.009 54.9169 213.051 54.201C213.112 53.1149 213.066 52.0245 213.066 50.7182C212.187 51.9173 211.095 52.9453 209.845 53.7516C205.219 56.6771 196.701 56.3951 192.277 49.2003C189.929 45.3827 189.413 41.1949 189.874 36.8354C190.314 32.8525 191.808 29.3608 194.855 26.6513C199.553 22.4657 207.233 22.3974 211.546 26.4794C212.053 26.9509 212.493 27.5038 213.057 28.1272ZM199.461 39.4524C199.444 40.2214 199.518 40.9897 199.681 41.7413C200.415 44.9245 202.999 47.0966 206.107 47.1384C209.348 47.1825 211.916 45.1822 212.758 41.9461C213.146 40.4515 213.178 38.8867 212.852 37.3773C212.302 34.7602 210.817 32.8723 208.209 32.0903C205.697 31.3347 203.411 31.87 201.514 33.7336C199.924 35.2999 199.439 37.2914 199.461 39.4524V39.4524Z" fill="#434244"/>
<path d="M182.1 43.4706C182.1 47.0658 182.085 50.6631 182.113 54.2649C182.113 54.8729 181.968 55.0535 181.338 55.0447C178.669 55.0066 176.001 55.0066 173.332 55.0447C172.671 55.0447 172.522 54.8531 172.524 54.223C172.546 47.0856 172.524 39.9481 172.557 32.8129C172.557 32.011 172.337 31.7445 171.548 31.8282C170.922 31.8965 170.283 31.8282 169.651 31.848C169.244 31.8656 169.059 31.7599 169.063 31.3083C169.081 29.029 169.081 26.7526 169.063 24.4792C169.063 24.0585 169.182 23.8977 169.623 23.9175C170.365 23.9505 171.11 23.8955 171.85 23.9351C172.376 23.9637 172.563 23.8183 172.552 23.2588C172.488 21.6947 172.687 20.1309 173.141 18.6327C174.425 14.63 177.355 12.5636 181.329 11.7375C183.01 11.3873 184.71 11.3476 186.42 11.3719C186.898 11.3719 187.094 11.4864 187.081 12.0173C187.05 14.2951 187.05 16.5715 187.081 18.8464C187.081 19.3618 186.933 19.5469 186.42 19.4764C186.2 19.4575 185.979 19.4575 185.759 19.4764C183.241 19.5755 181.999 20.9303 182.08 23.4416C182.096 23.8646 182.256 23.9395 182.62 23.9351C183.942 23.9219 185.263 23.9483 186.585 23.9197C187.072 23.9197 187.257 24.0276 187.246 24.5541C187.22 26.7776 187.22 29.0011 187.246 31.2246C187.246 31.7467 187.065 31.8854 186.585 31.8634C185.349 31.8348 184.109 31.8854 182.873 31.8392C182.259 31.8171 182.076 31.9934 182.08 32.6168C182.115 36.223 182.1 39.8468 182.1 43.4706Z" fill="#434244"/>
<path d="M239.102 34.527C239.102 41.0873 239.102 47.6476 239.116 54.2079C239.116 54.8357 238.986 55.0494 238.312 55.0406C235.615 54.9987 232.919 55.0098 230.222 55.0406C229.694 55.0406 229.522 54.9084 229.522 54.3555C229.538 41.0704 229.538 27.7839 229.522 14.4958C229.522 13.879 229.742 13.7887 230.286 13.7931C232.956 13.8151 235.624 13.824 238.292 13.7931C238.931 13.7931 239.12 13.9473 239.118 14.6082C239.094 21.239 239.102 27.883 239.102 34.527Z" fill="#434244"/>
<path d="M132.468 39.4594C132.468 44.3697 132.453 49.28 132.484 54.1903C132.484 54.8886 132.281 55.0472 131.602 55.0384C128.959 55.001 126.315 55.0076 123.685 55.0384C123.11 55.0384 122.877 54.9525 122.879 54.2938C122.901 44.4159 122.901 34.5395 122.879 24.6645C122.879 24.0257 123.073 23.8979 123.67 23.9045C126.365 23.9354 129.059 23.9354 131.752 23.9045C132.349 23.9045 132.473 24.0918 132.47 24.6513C132.459 29.5815 132.466 34.5204 132.468 39.4594Z" fill="#434244"/>
<path d="M150.971 39.4088C147.175 39.4088 143.379 39.3846 139.584 39.4286C138.828 39.4286 138.678 39.2083 138.703 38.51C138.749 36.3974 138.738 34.2826 138.703 32.1678C138.703 31.6281 138.848 31.4783 139.392 31.4805C147.12 31.4952 154.849 31.4952 162.578 31.4805C163.164 31.4805 163.316 31.6523 163.307 32.2207C163.276 34.3597 163.272 36.5032 163.307 38.6422C163.318 39.2568 163.148 39.4308 162.525 39.4264C158.672 39.3956 154.821 39.4088 150.971 39.4088Z" fill="#434244"/>
<path d="M133.374 15.5859C133.332 18.4497 131.171 20.5095 127.986 20.6989C124.289 20.9192 121.597 18.203 122.071 14.7268C122.368 12.5239 124.174 10.8519 126.673 10.4575C129.777 9.96409 132.587 11.6383 133.215 14.3677C133.289 14.7708 133.342 15.1774 133.374 15.5859V15.5859Z" fill="#434244"/>
<path d="M97.9707 24.8939L98.0872 24.9298C97.9819 25.0508 98.0043 24.9186 97.9841 24.876L97.9707 24.8939Z" fill="#FEFEFE"/>
<path d="M97.9839 40.8756L98.0434 40.7544C98.1161 40.8579 98.0676 40.8756 97.9707 40.8601L97.9839 40.8756Z" fill="#FEFEFE"/>
</svg>
